<?xml version="1.0" encoding="UTF-8" standalone="no"?>
<!DOCTYPE svg PUBLIC "-//W3C//DTD SVG 1.1//EN" "http://www.w3.org/Graphics/SVG/1.1/DTD/svg11.dtd">
<svg width="100%" height="100%" viewBox="0 0 1280 1024" version="1.1" xmlns="http://www.w3.org/2000/svg" xmlns:xlink="http://www.w3.org/1999/xlink" xml:space="preserve" xmlns:serif="http://www.serif.com/" style="fill-rule:evenodd;clip-rule:evenodd;stroke-linejoin:round;stroke-miterlimit:1.41421;">
    <rect id="Artboard1" x="0" y="0" width="1280" height="1024" style="fill:none;"/>
    <clipPath id="_clip1">
        <rect id="Artboard11" serif:id="Artboard1" x="0" y="0" width="1280" height="1024"/>
    </clipPath>
    <g clip-path="url(#_clip1)">
        <g transform="matrix(1,0,0,1,-220.655,-21.7042)">
            <path d="M785.256,478.316L782.4,499.203C742.576,473.531 733.826,420.336 781.439,365.82C829.053,311.304 1000.66,335.554 1026.92,352.465C1053.18,369.375 1087.85,466.223 1019.6,500.328L1006.21,460.922L984.35,441.082L924.561,444.078L863.103,433.98L794.85,453.582L785.256,478.316Z" style="fill:rgb(191,115,0);"/>
        </g>
        <g transform="matrix(1,0,0,1,-217.922,36.4531)">
            <path d="M799.415,560.913C781.859,530.126 779.94,497.591 779.536,479.281C779.131,460.971 805.117,470.537 805.117,470.537L813.642,509.405L826.87,530.883L847.781,536.827L852.921,563.713C852.921,563.713 816.971,591.701 799.415,560.913Z" style="fill:rgb(255,224,189);"/>
            <g transform="matrix(-1,0,0,1,1797.88,0)">
                <path d="M799.415,560.913C781.859,530.126 779.94,497.591 779.536,479.281C779.131,460.971 805.117,470.537 805.117,470.537L813.642,509.405L826.87,530.883L847.781,536.827L852.921,563.713C852.921,563.713 816.971,591.701 799.415,560.913Z" style="fill:rgb(255,224,189);"/>
            </g>
            <g transform="matrix(1,0,0,1,371.469,186.109)">
                <path d="M408.067,254.987L421.37,254.987L421.37,230.286L633.812,230.286L633.812,254.987L647.046,254.987L647.046,293.172L633.812,293.172L633.812,355.715L583.151,355.715L583.151,368.323L470.543,368.323L470.543,355.715L421.37,355.715L421.37,293.172L408.067,293.172L408.067,254.987Z" style="fill:rgb(255,224,189);"/>
            </g>
            <rect x="765.239" y="440.82" width="35.921" height="40.832" style="fill:rgb(255,224,189);"/>
            <g transform="matrix(1,0,0,1,234.941,0)">
                <rect x="765.239" y="440.82" width="35.921" height="40.832" style="fill:rgb(255,224,189);"/>
            </g>
        </g>
        <g transform="matrix(1,0,0,1,-217.922,36.4531)">
            <g transform="matrix(1.31627,0,0,1.31627,222.514,93.1075)">
                <path d="M444.648,506.063L444.648,480.27L470.689,480.27L470.689,506.063L495.792,506.063L495.792,531.859L470.689,531.859L444.648,531.859L444.648,506.063Z"/>
            </g>
            <g transform="matrix(1.31627,0,0,1.31627,371.617,93.1075)">
                <path d="M444.648,506.063L444.648,480.27L470.689,480.27L470.689,506.063L495.792,506.063L495.792,531.859L470.689,531.859L444.648,531.859L444.648,506.063Z"/>
            </g>
            <g transform="matrix(1,0,0,1,0,-58.8906)">
                <path d="M1004.91,475.616L792.81,475.616L792.81,500.159L779.407,500.159L779.407,424.77L804.231,424.77L804.231,399.468L992.934,399.468L992.934,424.77L1004.91,424.77L1004.91,424.567L1017.58,424.567L1017.58,499.956L1004.91,499.956L1004.91,475.616Z" style="fill:rgb(191,115,0);"/>
            </g>
            <g transform="matrix(1.04728,0,0,1.04728,360.921,196.911)">
                <circle cx="516.924" cy="343.622" r="185.083" style="fill:none;"/>
                <clipPath id="_clip2">
                    <circle cx="516.924" cy="343.622" r="185.083"/>
                </clipPath>
                <g clip-path="url(#_clip2)">
                    <g transform="matrix(0.954858,0,0,0.954858,-344.629,-188.022)">
                        <g transform="matrix(1.82351,0,0,1.0698,-47.2842,222.266)">
                            <rect x="405.898" y="365.814" width="230.875" height="106.323" style="fill:rgb(233,30,99);"/>
                        </g>
                        <g transform="matrix(1.83797,0,0,0.562744,-46.2825,349.23)">
                            <rect x="405.898" y="365.814" width="230.875" height="106.323" style="fill:rgb(233,30,99);"/>
                        </g>
                        <g transform="matrix(0.980201,-0.565919,0.5,0.866025,118.193,511.788)">
                            <g transform="matrix(0.920731,0,0,1.01965,50.2824,-23.0804)">
                                <rect x="387.758" y="420.674" width="28.917" height="74.286" style="fill:rgb(255,224,189);"/>
                            </g>
                            <g transform="matrix(0.920731,0,0,0.506261,50.2824,155.695)">
                                <rect x="387.758" y="420.674" width="28.917" height="74.286" style="fill:rgb(233,30,99);"/>
                            </g>
                        </g>
                        <g transform="matrix(-0.980201,-0.565919,-0.5,0.866025,1684.64,511.788)">
                            <g transform="matrix(0.920731,0,0,1.01965,50.2824,-23.0804)">
                                <rect x="387.758" y="420.674" width="28.917" height="74.286" style="fill:rgb(255,224,189);"/>
                            </g>
                            <g transform="matrix(0.920731,0,0,0.506261,50.2824,155.695)">
                                <rect x="387.758" y="420.674" width="28.917" height="74.286" style="fill:rgb(233,30,99);"/>
                            </g>
                        </g>
                        <path d="M694.915,554.786C734.951,535.474 767.83,529.641 785.09,526.62C786.785,534.278 801.766,570.698 821.815,569.052C870.413,565.063 801.279,590.623 801.279,590.623L739.383,578.612C739.383,578.612 654.878,574.099 694.915,554.786Z" style="fill:rgb(233,30,99);"/>
                        <g transform="matrix(-1,0,0,1,1796.76,0)">
                            <path d="M689.824,556.77C729.861,537.457 767.83,529.641 785.09,526.62C786.785,534.278 801.766,570.698 821.815,569.052C870.413,565.063 801.279,590.623 801.279,590.623L739.383,578.612C739.383,578.612 649.788,576.082 689.824,556.77Z" style="fill:rgb(233,30,99);"/>
                        </g>
                    </g>
                </g>
            </g>
            <g transform="matrix(1,0,0,1,371.469,186.109)">
                <rect x="445.02" y="255.145" width="13.266" height="12.906"/>
            </g>
            <g transform="matrix(1,0,0,1,522.5,186.109)">
                <rect x="445.02" y="255.145" width="13.266" height="12.906"/>
            </g>
            <g transform="matrix(-1,-1.22465e-16,8.96157e-17,-0.731768,1437.83,764.9)">
                <path d="M469.329,304.787L597.029,304.787L597.029,331.687L583.675,331.687L583.675,343.42L571.954,343.42L571.954,355.757L494.753,355.757L494.753,343.42L482.675,343.42L482.675,331.687L469.329,331.687L469.329,304.787Z" style="fill:rgb(20,20,20);"/>
            </g>
            <g transform="matrix(-1,-1.22465e-16,4.0445e-17,-0.330258,1437.83,633.822)">
                <path d="M583.675,332.612L571.754,332.612L571.754,343.354L494.101,343.354L494.101,332.612L482.882,332.612L482.882,317.781L583.675,317.781L583.675,332.612Z" style="fill:white;"/>
            </g>
        </g>
    </g>
</svg>
