<?xml version="1.0" encoding="UTF-8" standalone="no"?>
<!DOCTYPE svg PUBLIC "-//W3C//DTD SVG 1.1//EN" "http://www.w3.org/Graphics/SVG/1.1/DTD/svg11.dtd">
<svg width="100%" height="100%" viewBox="0 0 1280 1024" version="1.1" xmlns="http://www.w3.org/2000/svg" xmlns:xlink="http://www.w3.org/1999/xlink" xml:space="preserve" xmlns:serif="http://www.serif.com/" style="fill-rule:evenodd;clip-rule:evenodd;stroke-linejoin:round;stroke-miterlimit:1.41421;">
    <rect id="Artboard1" x="0" y="0" width="1280" height="1024" style="fill:none;"/>
    <clipPath id="_clip1">
        <rect id="Artboard11" serif:id="Artboard1" x="0" y="0" width="1280" height="1024"/>
    </clipPath>
    <g clip-path="url(#_clip1)">
        <g transform="matrix(1,0,0,1,-372.463,-40.4817)">
            <g transform="matrix(1,0,0,1,371.469,245)">
                <path d="M444.648,506.063L444.648,480.27L470.689,480.27L470.689,506.063L495.792,506.063L495.792,531.859L470.689,531.859L444.648,531.859L444.648,506.063Z"/>
            </g>
            <g transform="matrix(1,0,0,1,484.746,245)">
                <path d="M444.648,506.063L444.648,480.27L470.689,480.27L470.689,506.063L495.792,506.063L495.792,531.859L470.689,531.859L444.648,531.859L444.648,506.063Z"/>
            </g>
            <path d="M1004.91,475.616L792.81,475.616L792.81,500.159L779.407,500.159L779.407,424.77L797.319,417.978L773.34,394.409L970.915,408.565L992.934,424.77L1004.91,424.77L1004.91,424.567L1017.58,424.567L1017.58,499.956L1004.91,499.956L1004.91,475.616Z" style="fill:rgb(191,115,0);"/>
            <g transform="matrix(0.812171,0,0,1.05987,475.802,225.902)">
                <rect x="405.898" y="365.814" width="230.875" height="106.323" style="fill:rgb(233,30,99);"/>
            </g>
            <g transform="matrix(1,0,0,1,371.469,245)">
                <g transform="matrix(0.920731,0,0,1.01965,50.2824,-23.0804)">
                    <rect x="387.758" y="420.674" width="28.917" height="74.286" style="fill:rgb(255,224,189);"/>
                </g>
                <g transform="matrix(0.920731,0,0,0.506261,50.2824,155.695)">
                    <rect x="387.758" y="420.674" width="28.917" height="74.286" style="fill:rgb(233,30,99);"/>
                </g>
            </g>
            <g transform="matrix(1,0,0,1,371.469,245)">
                <path d="M408.067,254.987L421.37,254.987L421.37,230.286L633.812,230.286L633.812,254.987L647.046,254.987L647.046,293.172L633.812,293.172L633.812,355.715L583.151,355.715L583.151,368.323L470.543,368.323L470.543,355.715L421.37,355.715L421.37,293.172L408.067,293.172L408.067,254.987Z" style="fill:rgb(255,224,189);"/>
            </g>
            <g transform="matrix(1,0,0,1,371.469,245)">
                <rect x="445.02" y="255.145" width="13.266" height="12.906"/>
            </g>
            <g transform="matrix(1,0,0,1,522.5,245)">
                <rect x="445.02" y="255.145" width="13.266" height="12.906"/>
            </g>
            <g transform="matrix(1,0,0,1,585.402,245)">
                <g transform="matrix(0.920731,0,0,1.01965,50.2824,-23.0804)">
                    <rect x="387.758" y="420.674" width="28.917" height="74.286" style="fill:rgb(255,224,189);"/>
                </g>
                <g transform="matrix(0.920731,0,0,0.506261,50.2824,155.695)">
                    <rect x="387.758" y="420.674" width="28.917" height="74.286" style="fill:rgb(233,30,99);"/>
                </g>
            </g>
            <g transform="matrix(1,0,0,1,371.469,245)">
                <path d="M469.329,304.787L597.029,304.787L597.029,331.687L583.675,331.687L583.675,343.42L571.954,343.42L571.954,355.757L494.753,355.757L494.753,343.42L482.675,343.42L482.675,331.687L469.329,331.687L469.329,304.787Z" style="fill:rgb(20,20,20);"/>
            </g>
            <g transform="matrix(1,0,0,1,371.469,245)">
                <path d="M583.675,332.612L571.754,332.612L571.754,343.354L494.101,343.354L494.101,332.612L482.882,332.612L482.882,317.781L583.675,317.781L583.675,332.612Z" style="fill:white;"/>
            </g>
            <g transform="matrix(1.52448,0,0,0.622579,83.1579,374.443)">
                <rect x="526.392" y="317.595" width="19.847" height="25.978" style="fill:rgb(201,43,43);"/>
            </g>
        </g>
    </g>
</svg>
