<?xml version="1.0" encoding="UTF-8" standalone="no"?>
<!DOCTYPE svg PUBLIC "-//W3C//DTD SVG 1.1//EN" "http://www.w3.org/Graphics/SVG/1.1/DTD/svg11.dtd">
<svg width="100%" height="100%" viewBox="0 0 1280 1024" version="1.1" xmlns="http://www.w3.org/2000/svg" xmlns:xlink="http://www.w3.org/1999/xlink" xml:space="preserve" xmlns:serif="http://www.serif.com/" style="fill-rule:evenodd;clip-rule:evenodd;stroke-linecap:round;stroke-linejoin:round;stroke-miterlimit:1.5;">
    <rect id="Artboard1" x="0" y="0" width="1280" height="1024" style="fill:none;"/>
    <clipPath id="_clip1">
        <rect id="Artboard11" serif:id="Artboard1" x="0" y="0" width="1280" height="1024"/>
    </clipPath>
    <g clip-path="url(#_clip1)">
        <g>
            <g transform="matrix(1.39639,0,0,1.39639,-1036.12,-324.514)">
                <g transform="matrix(0.388532,0,0,0.388532,549.971,360.041)">
                    <path d="M1004.91,475.616L792.81,475.616L792.81,500.159L779.407,500.159L779.407,424.77L789.471,410.996L804.231,399.468L992.934,399.468L1005.26,410.629L1017.58,424.567L1017.58,499.956L1004.91,499.956L1004.91,475.616Z" style="fill:rgb(191,115,0);"/>
                </g>
                <g>
                    <g transform="matrix(0.586305,0,0,0.586305,589.69,404.768)">
                        <path d="M443.376,254.987L456.679,254.987L456.679,230.286L600.62,230.286L600.62,254.987L613.854,254.987L613.854,293.172L600.62,293.172L590.828,317.833C570.469,347.849 554.162,351.546 553.151,363.554L553.151,386.198L500.543,386.198L500.543,363.554C499.81,351.056 478.351,336.039 466.682,316.939L456.679,293.172L443.376,293.172L443.376,254.987Z" style="fill:rgb(255,224,189);"/>
                    </g>
                    <g transform="matrix(0.586305,0,0,0.586305,609.99,404.768)">
                        <rect x="445.02" y="255.145" width="13.266" height="12.906"/>
                    </g>
                    <g transform="matrix(0.586305,0,0,0.586305,660.124,404.768)">
                        <rect x="445.02" y="255.145" width="13.266" height="12.906"/>
                    </g>
                    <g transform="matrix(-0.250001,3.06163e-17,-3.06163e-17,-0.250001,1034.31,671.366)">
                        <path d="M469.329,304.787L597.029,304.787L597.029,331.687L583.675,331.687L583.675,343.42L571.954,343.42L571.954,355.757L494.753,355.757L494.753,343.42L482.675,343.42L482.675,331.687L469.329,331.687L469.329,304.787Z" style="fill:rgb(20,20,20);"/>
                    </g>
                    <g transform="matrix(-0.250001,3.06163e-17,-3.06163e-17,-0.250001,1034.31,671.366)">
                        <path d="M583.675,332.612L571.754,332.612L571.754,343.354L494.101,343.354L494.101,332.612L482.882,332.612L482.882,317.781L583.675,317.781L583.675,332.612Z" style="fill:white;"/>
                    </g>
                    <g transform="matrix(-0.381123,4.66741e-17,-1.90611e-17,-0.155646,1106.45,640.984)">
                        <rect x="526.392" y="317.595" width="19.847" height="25.978" style="fill:rgb(201,43,43);"/>
                    </g>
                </g>
            </g>
            <g transform="matrix(0.731531,0,0,0.731531,-84.1542,323.582)">
                <path d="M444.648,506.063L444.648,480.27L470.689,480.27L470.689,506.063L495.792,506.063L495.792,531.859L470.689,531.859L444.648,531.859L444.648,506.063Z"/>
            </g>
            <g transform="matrix(1.39639,0,0,1.39639,-1041.25,-324.514)">
                <g transform="matrix(0.523874,0,0,0.523874,641.737,464.124)">
                    <path d="M444.648,506.063L444.648,480.27L470.689,480.27L470.689,506.063L495.792,506.063L495.792,531.859L470.689,531.859L444.648,531.859L444.648,506.063Z"/>
                </g>
                <g transform="matrix(0.618563,0,0,1.05987,584.119,243.946)">
                    <path d="M468.359,440.044L455.858,365.87C399.796,421.248 472.688,401.934 468.359,440.044Z" style="fill:rgb(233,30,99);"/>
                </g>
                <g transform="matrix(-0.618563,0,0,1.05987,1220.49,243.946)">
                    <path d="M461.763,438.425L452.914,365.898C396.852,421.276 466.091,400.315 461.763,438.425Z" style="fill:rgb(233,30,99);"/>
                </g>
            </g>
            <g transform="matrix(1.39639,0,0,1.39639,-509.596,-180.404)">
                <path d="M559.889,528.458L485.22,528.458C485.22,528.458 491.327,594.979 491.775,606.866C492.134,616.388 507.464,618.838 523.224,605.052C525.789,602.809 546.487,625.787 554.509,605.539C557.287,598.529 559.889,528.458 559.889,528.458Z" style="fill:rgb(233,30,99);"/>
            </g>
            <g transform="matrix(1.39639,0,0,1.39639,-509.596,-186.489)">
                <g transform="matrix(1,0,0,1,30.0516,4.70104)">
                    <path d="M454.371,538.704C471.871,549.639 464.891,550.258 484.967,556.118" style="fill:none;stroke:rgb(20,19,19);stroke-width:2.09px;"/>
                </g>
                <g transform="matrix(1,0,0,1,25.549,38.5057)">
                    <path d="M454.371,538.704C471.871,549.639 464.891,550.258 484.967,556.118" style="fill:none;stroke:rgb(20,19,19);stroke-width:2.09px;"/>
                </g>
                <g transform="matrix(1,0,0,1,27.3927,16.399)">
                    <path d="M454.371,538.704C471.871,549.639 464.891,550.258 484.967,556.118" style="fill:none;stroke:rgb(20,19,19);stroke-width:2.09px;"/>
                </g>
                <g transform="matrix(1,0,0,1,27.049,27.4615)">
                    <path d="M454.371,538.704C471.871,549.639 464.891,550.258 484.967,556.118" style="fill:none;stroke:rgb(20,19,19);stroke-width:2.09px;"/>
                </g>
            </g>
            <g transform="matrix(1.39639,0,0,1.39639,-509.596,-192.044)">
                <g transform="matrix(-1,0,0,1,1014.69,8.67917)">
                    <path d="M454.371,538.704C471.871,549.639 464.891,550.258 484.967,556.118" style="fill:none;stroke:rgb(20,19,19);stroke-width:2.09px;"/>
                </g>
                <g transform="matrix(-1,0,0,1,1019.19,42.4839)">
                    <path d="M454.371,538.704C471.871,549.639 464.891,550.258 484.967,556.118" style="fill:none;stroke:rgb(20,19,19);stroke-width:2.09px;"/>
                </g>
                <g transform="matrix(-1,0,0,1,1017.35,20.3771)">
                    <path d="M454.371,538.704C471.871,549.639 464.891,550.258 484.967,556.118" style="fill:none;stroke:rgb(20,19,19);stroke-width:2.09px;"/>
                </g>
                <g transform="matrix(-1,0,0,1,1017.69,31.4396)">
                    <path d="M454.371,538.704C471.871,549.639 464.891,550.258 484.967,556.118" style="fill:none;stroke:rgb(20,19,19);stroke-width:2.09px;"/>
                </g>
            </g>
            <g transform="matrix(1.39639,0,0,1.39639,-501.744,-180.404)">
                <g transform="matrix(0.688305,0,0,0.688305,257.335,90.1796)">
                    <path d="M311.105,622.863L311.105,584.342L325.804,584.342L325.804,635.558C329.103,636.55 333.362,638.225 337.235,639.855L362.245,625.415L370.495,639.704L344.736,654.576C326.062,696.673 306.208,673.933 288.207,663.009L288.172,663.073L239.913,636.61L246.963,623.753L294.444,649.789C294.481,649.75 294.518,649.71 294.556,649.67L256.719,611.833L267.112,601.44L301.778,636.106L277.383,593.852L290.113,586.503L311.105,622.863Z" style="fill:rgb(255,190,120);"/>
                </g>
                <g transform="matrix(-0.688305,0,0,0.688305,776.526,90.1796)">
                    <path d="M311.105,622.863L311.105,584.342L325.804,584.342L325.804,635.558C329.103,636.55 333.362,638.225 337.235,639.855L362.245,625.415L370.495,639.704L344.736,654.576C326.062,696.673 306.208,673.933 288.207,663.009L288.172,663.073L239.913,636.61L246.963,623.753L294.444,649.789C294.481,649.75 294.518,649.71 294.556,649.67L256.719,611.833L267.112,601.44L301.778,636.106L277.383,593.852L290.113,586.503L311.105,622.863Z" style="fill:rgb(255,190,120);"/>
                </g>
            </g>
        </g>
    </g>
</svg>
